<svg id="Laag_1" xmlns="http://www.w3.org/2000/svg" xmlns:xlink="http://www.w3.org/1999/xlink" viewBox="0 0 140 140" class="h-[8.75rem]"><defs><mask id="mask" x="90.45" y="61.06" width="34.25" height="47.58" maskUnits="userSpaceOnUse"><g id="mask0_27580_23229"><rect x="91.47" y="61.08" width="32.36" height="32.36" transform="translate(30.27 184.83) rotate(-89.94)" style="fill: rgb(217, 217, 217); stroke-width: 0;"></rect></g></mask><mask id="mask-1" x="75.56" y="39.21" width="57.42" height="13.19" maskUnits="userSpaceOnUse"><g id="mask1_27580_23229"><path d="M125.5,45.12c0,.55-.45,1-1,1h-45.49c-.55-.01-1-.46-1-1.01,0-.55.45-1,1-1h45.48c.55.01,1,.46,1,1.01Z" style="fill: rgb(52, 52, 52); fill-rule: evenodd; stroke-width: 0;"></path></g></mask></defs><rect x="27.92" y="4.2" width="83.69" height="131.45" rx="5.74" ry="5.74" transform="translate(-.23 139.61) rotate(-89.94)" style="fill: rgb(255, 255, 255); stroke: rgb(52, 52, 52); stroke-miterlimit: 4; stroke-width: 2;"></rect><path d="M19.24,88.22l25.65.03" style="fill: none; stroke: #B3CBDC; stroke-linecap: round; stroke-width: 1.75px;"></path><path d="M19.22,101.63l19.73.02" style="fill: none; stroke: #B3CBDC; stroke-linecap: round; stroke-width: 1.75px;"></path><path d="M66.18,101.68l19.73.02" style="fill: none; stroke: #B3CBDC; stroke-linecap: round; stroke-width: 1.75px;"></path><path d="M19.23,92.55l33.55.04" style="fill: none; stroke: #B3CBDC; stroke-linecap: round; stroke-width: 1.75px;"></path><path d="M78.36,50.58v-.79s1.47,0,1.47,0v4.44s-.88,0-.88,0v-3.65s-.59,0-.59,0ZM80.94,53.28c.39-.32.7-.59.93-.81.23-.22.42-.45.58-.68.15-.24.23-.47.23-.69,0-.21-.05-.37-.15-.49-.1-.12-.25-.18-.45-.18-.2,0-.36.07-.47.21-.11.13-.17.32-.17.55h-.83c.02-.49.16-.86.43-1.11.28-.25.63-.38,1.05-.38.46,0,.82.12,1.07.37.25.24.37.57.37.97,0,.32-.09.62-.26.91-.17.29-.37.54-.59.75-.22.21-.51.47-.86.77h1.8s0,.71,0,.71h-3.01s0-.64,0-.64l.32-.27ZM84.18,50.97c.02-.41.16-.72.43-.94.27-.22.62-.33,1.05-.33.3,0,.55.05.76.16.21.1.37.24.47.42.11.17.16.37.16.6,0,.26-.07.47-.2.65-.13.17-.29.29-.47.35v.02c.24.07.42.2.55.39.13.19.2.43.2.72,0,.24-.06.46-.17.65-.11.19-.27.34-.49.45-.22.11-.48.16-.78.16-.46,0-.83-.12-1.12-.35-.29-.23-.44-.57-.46-1.02h.83c0,.2.07.36.2.48.13.12.31.18.53.18.21,0,.37-.06.48-.17.11-.12.17-.27.17-.45,0-.24-.08-.42-.23-.52-.15-.11-.39-.16-.72-.16h-.18s0-.7,0-.7h.18c.58,0,.86-.19.87-.58,0-.17-.05-.31-.16-.41-.1-.1-.25-.15-.44-.15-.19,0-.34.05-.44.16-.1.1-.16.23-.18.39h-.83ZM87.77,53.38v-.67s2-2.85,2-2.85h.99s0,2.78,0,2.78h.54s0,.74,0,.74h-.54s0,.86,0,.86h-.85s0-.87,0-.87h-2.13ZM89.96,50.78l-1.25,1.86h1.25s0-1.86,0-1.86ZM94.82,50.55h-1.97s0,1.04,0,1.04c.09-.11.21-.19.37-.26.16-.07.33-.1.51-.1.32,0,.59.07.8.21.21.14.36.33.45.55.09.22.14.45.14.71,0,.47-.13.84-.4,1.13-.26.28-.64.43-1.13.42-.46,0-.83-.12-1.11-.35-.28-.23-.43-.53-.47-.91h.83c.04.16.12.29.24.39.13.1.29.15.49.15.24,0,.42-.07.54-.22.12-.15.18-.35.18-.6,0-.25-.06-.44-.19-.57-.12-.13-.3-.2-.54-.2-.17,0-.31.04-.43.13-.11.09-.2.2-.24.34h-.82s0-2.61,0-2.61h2.75s0,.75,0,.75ZM98.06,50.93c-.04-.17-.11-.3-.21-.38-.1-.09-.24-.13-.43-.13-.28,0-.49.11-.62.34-.13.22-.2.59-.2,1.1.1-.16.24-.29.43-.38.19-.09.39-.14.61-.14.26,0,.5.06.7.17.2.11.36.28.47.5.11.22.17.48.17.78,0,.29-.06.55-.18.77-.11.22-.28.4-.51.52-.22.13-.49.19-.8.19-.42,0-.75-.09-1-.28-.24-.19-.41-.45-.5-.78-.09-.34-.14-.75-.14-1.24,0-.74.13-1.3.39-1.68.26-.38.66-.57,1.21-.57.43,0,.76.12.99.35.24.23.37.52.41.87h-.79ZM97.44,52.04c-.22,0-.4.06-.54.19-.15.13-.22.31-.22.55,0,.24.07.43.2.57.14.14.33.21.58.21.22,0,.39-.07.52-.2.13-.13.2-.31.2-.54,0-.24-.06-.42-.19-.56-.12-.14-.3-.21-.54-.21Z" style="fill: #B3CBDC; stroke-width: 0;"></path><path d="M73.09,38.24c-.1-.18-.23-.31-.4-.41-.17-.09-.37-.14-.6-.14-.25,0-.47.06-.67.17-.19.11-.35.28-.46.49-.11.21-.16.45-.17.73,0,.28.05.53.16.74.11.21.27.37.47.49.2.11.43.17.69.17.32,0,.59-.08.8-.25.21-.17.34-.42.41-.72h-1.46s0-.65,0-.65h2.3s0,.75,0,.75c-.06.3-.18.57-.37.82-.19.25-.43.45-.73.61-.29.15-.62.22-.99.22-.41,0-.78-.09-1.11-.28-.33-.19-.59-.45-.78-.77-.19-.33-.28-.7-.28-1.12,0-.42.09-.79.28-1.12.19-.33.45-.59.78-.77.33-.19.7-.28,1.11-.28.48,0,.9.12,1.25.35.35.23.6.56.73.98h-.98ZM77.94,39.45c0,.12,0,.23-.02.33h-2.47c.02.24.11.43.26.57.15.14.33.21.55.21.32,0,.54-.14.68-.41h.92c-.1.33-.28.59-.56.8-.28.21-.62.31-1.02.31-.32,0-.62-.07-.88-.21-.26-.15-.46-.35-.6-.62-.14-.26-.21-.57-.21-.91,0-.35.07-.66.21-.92.14-.26.34-.47.6-.61.26-.14.55-.21.88-.21.32,0,.61.07.86.21.26.14.45.34.59.59.14.25.21.54.21.87ZM77.05,39.21c0-.22-.08-.39-.24-.52-.15-.13-.34-.2-.57-.2-.21,0-.39.06-.54.19-.14.13-.23.3-.26.53h1.6ZM79.85,41.27c-.28,0-.52-.05-.74-.15-.22-.1-.39-.24-.52-.41-.13-.17-.19-.36-.21-.57h.86c.02.13.08.24.19.32.11.09.25.13.42.13.16,0,.29-.03.38-.1.09-.06.14-.15.14-.25,0-.11-.06-.19-.17-.24-.11-.06-.29-.12-.53-.18-.25-.06-.46-.12-.62-.19-.16-.07-.3-.16-.41-.3-.11-.13-.17-.31-.17-.54,0-.19.05-.36.16-.51.11-.15.26-.28.46-.36.2-.09.44-.13.71-.13.4,0,.72.1.96.31.24.2.37.47.39.81h-.82c-.01-.13-.07-.24-.17-.32-.1-.08-.23-.12-.4-.12-.15,0-.27.03-.36.08-.08.06-.12.14-.12.24,0,.11.06.2.17.26.11.06.29.12.53.18.24.06.44.12.6.19.16.07.29.17.41.3.12.13.18.31.18.54,0,.19-.06.37-.17.52-.11.15-.26.28-.46.36-.2.08-.43.13-.7.13ZM85.06,37.85v3.37s-.86,0-.86,0v-.43c-.11.15-.25.26-.43.35-.17.08-.37.12-.57.12-.26,0-.5-.06-.7-.17-.2-.11-.36-.28-.48-.49-.11-.22-.17-.48-.17-.78v-1.98s.85,0,.85,0v1.86c0,.27.06.48.2.62.13.14.32.21.55.21.24,0,.42-.07.55-.21.13-.15.2-.35.2-.62v-1.86s.86,0,.86,0ZM87.77,37.8c.4,0,.73.13.97.38.25.25.37.61.37,1.06v1.98s-.85,0-.85,0v-1.86c0-.27-.06-.47-.2-.62-.13-.15-.32-.22-.55-.22-.24,0-.42.07-.56.22-.13.14-.2.35-.2.61v1.86s-.85,0-.85,0v-3.37s.86,0,.86,0v.42c.11-.15.26-.26.43-.34.18-.08.37-.13.58-.13ZM89.71,39.53c0-.34.07-.64.2-.91.14-.26.33-.47.56-.61.24-.14.5-.21.79-.21.22,0,.43.05.63.15.2.09.36.22.47.38v-1.6s.87,0,.87,0v4.51s-.87,0-.87,0v-.5c-.11.17-.25.3-.44.4-.19.1-.41.15-.66.15-.28,0-.54-.07-.78-.22-.24-.15-.42-.35-.56-.62-.13-.27-.2-.57-.2-.92ZM92.36,39.54c0-.21-.04-.38-.12-.53-.08-.15-.19-.26-.33-.34-.14-.08-.29-.12-.44-.12-.16,0-.3.04-.44.12-.13.08-.24.19-.33.34-.08.15-.12.32-.12.52,0,.2.04.38.12.54.09.15.19.27.33.35.14.08.28.12.44.12.16,0,.31-.04.44-.12.14-.08.25-.19.33-.34.08-.15.12-.33.12-.54ZM95.96,37.81c.26,0,.48.06.68.17.2.11.35.27.46.49.11.22.17.48.17.78v1.98s-.85,0-.85,0v-1.86c0-.27-.06-.47-.2-.62-.13-.15-.32-.22-.55-.22-.24,0-.42.07-.56.22-.13.14-.2.35-.2.61v1.86s-.85,0-.85,0v-4.51s.86,0,.86,0v1.55c.11-.15.25-.26.44-.34.18-.09.39-.13.61-.13ZM101.22,39.48c0,.12,0,.23-.02.33h-2.47c.02.24.11.43.26.57.15.14.33.21.55.21.32,0,.54-.14.68-.41h.92c-.1.33-.28.59-.56.8-.28.21-.62.31-1.02.31-.32,0-.62-.07-.88-.21-.26-.15-.46-.35-.6-.62-.14-.26-.21-.57-.21-.91,0-.35.07-.66.21-.92.14-.26.34-.47.6-.61.26-.14.55-.21.88-.21.32,0,.61.07.86.21.26.14.45.34.59.59.14.25.21.54.21.87ZM100.33,39.23c0-.22-.08-.39-.24-.52-.15-.13-.34-.2-.57-.2-.21,0-.39.06-.54.19-.14.13-.23.3-.26.53h1.6ZM102.27,37.46c-.15,0-.28-.05-.38-.14-.1-.1-.15-.22-.15-.36s.05-.26.15-.35c.1-.1.23-.15.38-.15.15,0,.27.05.37.15.1.09.15.21.15.35,0,.14-.05.26-.15.36-.1.09-.22.14-.37.14ZM102.69,37.87v3.37s-.86,0-.86,0v-3.37s.86,0,.86,0ZM104.53,38.57v1.63c0,.11.02.2.08.25.06.05.15.07.28.07h.4s0,.72,0,.72h-.54c-.72,0-1.08-.35-1.08-1.05v-1.63s-.4,0-.4,0v-.7s.4,0,.4,0v-.83s.86,0,.86,0v.83s.75,0,.75,0v.7s-.76,0-.76,0ZM107.18,41.3c-.28,0-.52-.05-.74-.15-.22-.1-.39-.24-.52-.41-.13-.17-.19-.36-.21-.57h.86c.02.13.08.24.19.32.11.09.25.13.42.13.16,0,.29-.03.38-.1.09-.06.14-.15.14-.25,0-.11-.06-.19-.17-.24-.11-.06-.29-.12-.53-.18-.25-.06-.46-.12-.62-.19-.16-.07-.3-.16-.41-.3-.11-.13-.17-.31-.17-.54,0-.19.05-.36.16-.51.11-.15.26-.28.46-.36.2-.09.44-.13.71-.13.4,0,.72.1.96.31.24.2.37.47.39.81h-.82c-.01-.13-.07-.24-.17-.32-.1-.08-.23-.12-.4-.12-.15,0-.27.03-.36.08-.08.06-.12.14-.12.24,0,.11.06.2.17.26.11.06.29.12.53.18.24.06.44.12.6.19.16.07.29.17.41.3.12.13.18.31.18.54,0,.19-.06.37-.17.52-.11.15-.26.28-.46.36-.2.09-.43.13-.7.13ZM111.21,41.25l-1.14-1.44v1.44s-.85,0-.85,0v-4.51s.86,0,.86,0v2.56s1.13-1.43,1.13-1.43h1.11s-1.49,1.69-1.49,1.69l1.5,1.68h-1.11ZM112.55,39.55c0-.34.07-.64.2-.91.14-.26.32-.47.55-.61.24-.14.5-.21.79-.21.25,0,.47.05.66.15.19.1.34.23.46.38v-.48h.86s0,3.37,0,3.37h-.86s0-.49,0-.49c-.11.16-.26.29-.46.4-.19.1-.41.15-.66.15-.28,0-.54-.07-.78-.22-.23-.15-.42-.35-.55-.62-.13-.27-.2-.57-.2-.92ZM115.2,39.57c0-.21-.04-.38-.12-.53-.08-.15-.19-.26-.33-.34-.14-.08-.29-.12-.44-.12-.16,0-.3.04-.44.12-.13.08-.24.19-.33.34-.08.15-.12.32-.12.52,0,.2.04.38.12.54.09.15.19.27.33.35.14.08.28.12.44.12.16,0,.31-.04.44-.12.14-.08.25-.19.33-.34.08-.15.12-.33.12-.54ZM117.75,38.41c.11-.18.25-.32.43-.42.18-.1.38-.15.61-.15v.9s-.23,0-.23,0c-.27,0-.47.06-.61.19-.13.13-.2.34-.2.66v1.68s-.85,0-.85,0v-3.37s.86,0,.86,0v.52ZM120.35,38.59v1.63c0,.11.02.2.08.25.06.05.15.07.28.07h.4s0,.72,0,.72h-.54c-.72,0-1.08-.35-1.08-1.05v-1.63s-.4,0-.4,0v-.7s.4,0,.4,0v-.83s.86,0,.86,0v.83s.75,0,.75,0v.7s-.76,0-.76,0ZM124.85,39.51c0,.12,0,.23-.02.33h-2.47c.02.24.11.43.25.57.15.14.34.21.55.21.32,0,.54-.14.68-.41h.92c-.1.33-.28.59-.56.8-.28.21-.62.31-1.02.31-.32,0-.62-.07-.88-.21-.26-.15-.46-.35-.6-.62-.14-.26-.21-.57-.21-.91,0-.35.07-.66.21-.92.14-.26.34-.47.6-.61.26-.14.55-.21.88-.21.32,0,.61.07.86.21.25.14.45.34.59.59.14.25.21.54.21.87ZM123.97,39.26c0-.22-.08-.39-.24-.52-.15-.13-.34-.2-.57-.2-.21,0-.39.06-.54.19-.14.13-.23.3-.26.53h1.6Z" style="fill: #5FA6D2; stroke-width: 0;"></path><g style="mask: url(&quot;#mask&quot;);"><path d="M112.7,86.68s.08.05.11.07c-.04-.02-.08-.05-.11-.07Z" style="fill: #E8F1F8; stroke-width: 0;"></path><path d="M112.99,86.85s0,0,0,0c0,0,0,0,0,0Z" style="fill: #E8F1F8; stroke-width: 0;"></path><path d="M102.78,86.65s.09-.05.13-.08c-.05.03-.09.05-.13.08Z" style="fill: #E8F1F8; stroke-width: 0;"></path><path d="M102.99,86.53s.03-.02.04-.03c-.01,0-.03.02-.04.03Z" style="fill: #E8F1F8; stroke-width: 0;"></path><path d="M109.93,82.53v-.12c2.6-.97,4.25-3.7,4.2-6.77,1.58.07,2.21-2.71,1.15-3.78-.19,1.11-.57,2.24-1.18,3.34.47-5.05-5.51-6.38-6.34-9.85-.17,3.58-4.5,3.19-5.95,7.96-1.26,3.38.37,7.97,3.74,9.09v.78c-16.16,3.85-9.11-24.99,2.29-21.7,10.46-.64,14.28,20.04,2.1,21.05Z" style="fill: #0E67AB; stroke-width: 0;"></path><path d="M109.92,84.41v-2.01c-1.31.57-3.08.57-4.39,0,.06,1.61.23,2.74-1.71,3.63,0,0,0,0,0,0,1.68.52,4.82.92,7.79,0-.86-.53-1.69-1.12-1.69-1.62Z" style="fill: #E8F1F8; stroke-width: 0;"></path><path d="M113.82,87.29c-.78-.36-1.45-.83-2.2-1.26-4.21,1.61-7-1.06-9.75,1.13-2.31,1.13-5.57,1.27-6.54,2.95-3.32,5.73-4.61,16.02-4.88,18.49h4.91s2.47-8.26,2.47-8.26c0,0,1.18,4.26,1.57,8.26l16.65.02c.2-2.4.72-5,1.62-7.7.59,1.31,1.85,5.53,2.46,7.71h4.57c-.22-2.78-1.21-12.34-4.76-18.62-.92-1.63-3.87-1.72-6.13-2.73Z" style="fill: #1464A4; stroke-width: 0;"></path><path d="M115.79,73.58c-.09,1.07-.68,2.12-1.66,2.06-.04,11.12-15.76,8.03-12.33-2.33,1.45-4.78,5.79-4.38,5.95-7.96.83,3.46,6.82,4.8,6.34,9.85.61-1.1,1-2.22,1.18-3.34.44.45.57,1.11.51,1.72h0Z" style="fill: #EBEEF9; stroke-width: 0;"></path><path d="M105.24,73.32c.29-1.04-1.28-1.48-1.38-.35-.29,1.04,1.28,1.48,1.38.35Z" style="fill: rgb(15, 35, 80); stroke-width: 0;"></path><path d="M110.94,72.29c-.95-.01-.95,1.74,0,1.72.95.01.95-1.74,0-1.72Z" style="fill: rgb(15, 35, 80); stroke-width: 0;"></path><path d="M107.75,72.84c.13.57.06.92.66,2.11.26.53,1.32,1.59-.27,2.11" style="fill: none; stroke: rgb(15, 35, 80); stroke-linecap: round; stroke-width: 0.5px;"></path><path d="M105.89,79.18c.73.42,1.98,1.11,3.96,0" style="fill: none; stroke: rgb(15, 35, 80); stroke-linecap: round; stroke-width: 0.5px;"></path><path d="M105.63,70.99c-.39-.18-1.06-.49-2.11,0" style="fill: none; stroke: rgb(15, 35, 80); stroke-linecap: round; stroke-width: 0.5px;"></path><path d="M111.97,71c-.39-.18-1.06-.49-2.11,0" style="fill: none; stroke: rgb(29, 94, 245); stroke-linecap: round; stroke-width: 0.5px;"></path></g><path d="M55.76,38.1c3.42,0,6.18,2.78,6.18,6.19" style="fill: none; stroke: #C7E2EE; stroke-linecap: round; stroke-linejoin: round; stroke-width: 1.09px;"></path><path d="M55.76,40.42c2.14,0,3.86,1.74,3.86,3.87" style="fill: none; stroke: #C7E2EE; stroke-linecap: round; stroke-linejoin: round; stroke-width: 1.09px;"></path><path d="M55.76,42.74c.85,0,1.55.69,1.54,1.55" style="fill: none; stroke: #C7E2EE; stroke-linecap: round; stroke-linejoin: round; stroke-width: 1.09px;"></path><path d="M55.85,46.03c0,.8-.65,1.45-1.45,1.45-.8,0-1.45-.65-1.45-1.45,0-.8.65-1.45,1.45-1.45.8,0,1.45.65,1.45,1.45Z" style="fill: #C7E2EE; stroke-width: 0;"></path><path d="M52.66,53.56c-3.42,0-6.18-2.78-6.18-6.19" style="fill: none; stroke: #C7E2EE; stroke-linecap: round; stroke-linejoin: round; stroke-width: 1.09px;"></path><path d="M52.66,51.24c-2.14,0-3.86-1.74-3.86-3.87" style="fill: none; stroke: #C7E2EE; stroke-linecap: round; stroke-linejoin: round; stroke-width: 1.09px;"></path><path d="M52.66,48.92c-.85,0-1.55-.69-1.54-1.55" style="fill: none; stroke: #C7E2EE; stroke-linecap: round; stroke-linejoin: round; stroke-width: 1.09px;"></path><g style="mask: url(&quot;#mask-1&quot;);"><path d="M109.98,39.25l23,.03v13.13s-23.01-.03-23.01-.03v-13.13Z" style="fill: #EBEEF9; stroke-width: 0;"></path><path d="M109.98,39.25l-15.33-.02v13.13s15.32.02,15.32.02v-13.13Z" style="fill: #63A6D2; stroke-width: 0;"></path><path d="M75.58,39.21l19.07.02v13.13s-19.09-.02-19.09-.02v-13.13Z" style="fill: #236A98; stroke-width: 0;"></path></g><path d="M21.55,63.27h13.28c1.6-.01,2.81,1.04,2.81,2.22h0s.01,9.22.01,9.22h0c0,1.19-1.21,2.24-2.8,2.24h-13.29s0,.01,0,.01c-1.6,0-2.81-1.05-2.81-2.23h0s-.01-9.22-.01-9.22h0c0-1.19,1.2-2.24,2.8-2.24Z" style="fill: #63A6D2; stroke: #236A98; stroke-width: 0.5px;"></path><path d="M18.89,72.11h6.93c.71.02,2,.38,1.49,1.63-1.19,1.31-2.82,2.95-3.07,3.25" style="fill: none; stroke: #236A98; stroke-width: 0.5px;"></path><path d="M18.89,68.09h6.93c.71-.02,2-.38,1.49-1.63-1.19-1.31-2.72-2.9-2.97-3.2" style="fill: none; stroke: #236A98; stroke-width: 0.5px;"></path><path d="M25.65,68.13v3.98" style="fill: none; stroke: #236A98; stroke-width: 0.5px;"></path><path d="M37.49,72.11h-6.93c-.71.02-2,.38-1.49,1.63,1.19,1.31,2.82,2.95,3.07,3.25" style="fill: none; stroke: #236A98; stroke-width: 0.5px;"></path><path d="M37.49,68.09h-6.93c-.71-.02-2-.38-1.49-1.63,1.19-1.31,2.72-2.9,2.97-3.2" style="fill: none; stroke: #236A98; stroke-width: 0.5px;"></path><path d="M30.73,68.13v3.98" style="fill: none; stroke: #236A98; stroke-width: 0.5px;"></path></svg>