<svg xmlns="http://www.w3.org/2000/svg" viewBox="0 0 24 24"><path fill="none" stroke="currentColor" stroke-linecap="round" stroke-linejoin="round" stroke-width="1.5" d="M6 6h4v4H6V6ZM6 14h4v4H6v-4ZM18 10h-4V6h4v4ZM16.04 15.96s.02.05 0 .07c-.02.02-.05.02-.07 0a.048.048 0 0 1 0-.07c.02-.02.05-.02.07 0M14.04 13.96s.02.05 0 .07c-.02.02-.05.02-.07 0a.048.048 0 0 1 0-.07c.02-.02.05-.02.07 0M14.04 17.96s.02.05 0 .07c-.02.02-.05.02-.07 0a.048.048 0 0 1 0-.07c.02-.02.05-.02.07 0M18.04 17.96s.02.05 0 .07c-.02.02-.05.02-.07 0-.02-.02-.02-.05 0-.07s.05-.02.07 0M21.5 7.98V4.5a2 2 0 0 0-2-2h-3.48M7.98 2.5H4.5c-1.11 0-2 .89-2 2v3.48M2.5 16.02v3.48a2 2 0 0 0 2 2h3.48M16.02 21.5h3.48c1.1 0 2-.9 2-2v-3.48M18.04 13.96s.02.05 0 .07c-.02.02-.05.02-.07 0a.048.048 0 0 1 0-.07c.02-.02.05-.02.07 0"/></svg>