<svg xmlns="http://www.w3.org/2000/svg" viewBox="0 0 20 20"><path fill="none" stroke="currentColor" stroke-linecap="round" stroke-linejoin="round" stroke-width="1.5" d="M6.5 8.1H4.2c-.9 0-1.7-.7-1.7-1.7V4.2c0-.9.7-1.7 1.7-1.7h2.3c.9 0 1.7.7 1.7 1.7v2.3c-.1.9-.8 1.6-1.7 1.6zm9.3 0h-2.3c-.9 0-1.7-.7-1.7-1.7V4.2c0-.9.7-1.7 1.7-1.7h2.3c.9 0 1.7.7 1.7 1.7v2.3c0 .9-.7 1.6-1.7 1.6zm-9.3 9.4H4.2c-.9 0-1.7-.7-1.7-1.7v-2.3c0-.9.7-1.7 1.7-1.7h2.3c.9 0 1.7.7 1.7 1.7v2.3c-.1 1-.8 1.7-1.7 1.7zm9.3 0h-2.3c-.9 0-1.7-.7-1.7-1.7v-2.3c0-.9.7-1.7 1.7-1.7h2.3c.9 0 1.7.7 1.7 1.7v2.3c0 1-.7 1.7-1.7 1.7z"/></svg>