<svg xmlns="http://www.w3.org/2000/svg" viewBox="0 0 24 24"><path fill="none" stroke="currentColor" stroke-linecap="round" stroke-linejoin="round" stroke-width="1.5" d="M23 15.2c0-.44-.36-.8-.8-.8h-1.6v-1.6c0-.44-.36-.8-.8-.8h-1.6c-.44 0-.8.36-.8.8v1.6h-1.6c-.44 0-.8.36-.8.8v1.6c0 .44.36.8.8.8h1.6v1.6c0 .44.36.8.8.8h1.6c.44 0 .8-.36.8-.8v-1.6h1.6c.44 0 .8-.36.8-.8v-1.6ZM5 7.5h12m-12 4h7m-7 4h2"/><path fill="none" stroke="currentColor" stroke-linecap="round" stroke-linejoin="round" stroke-width="1.5" d="M23 9V6c0-1.66-1.34-3-3-3H4C2.34 3 1 4.34 1 6v11c0 1.66 1.34 3 3 3h7.85"/></svg>