<svg xmlns="http://www.w3.org/2000/svg" id="Laag_1" viewBox="0 0 32 32"><defs><style>.cls-1,.cls-2{stroke:#343434;fill:none;stroke-linecap:round;stroke-linejoin:round;stroke-width:1.5px}.cls-2{stroke:#C73418}</style></defs><g style="opacity:.4"><path d="M5.2 6.4H10v4.8H5.2V6.4ZM5.2 16H10v4.8H5.2V16ZM19.6 11.2h-4.8V6.4h4.8v4.8ZM17.24 18.36s.02.06 0 .08a.06.06 0 0 1-.08 0 .06.06 0 0 1 0-.08.06.06 0 0 1 .08 0M14.84 15.96s.02.06 0 .08a.06.06 0 0 1-.08 0 .06.06 0 0 1 0-.08.06.06 0 0 1 .08 0M14.84 20.76s.02.06 0 .08a.06.06 0 0 1-.08 0 .06.06 0 0 1 0-.08.06.06 0 0 1 .08 0M19.64 20.76s.02.06 0 .08a.06.06 0 0 1-.08 0 .06.06 0 0 1 0-.08.06.06 0 0 1 .08 0M23.8 8.77V4.6c0-1.33-1.07-2.4-2.4-2.4h-4.17M7.57 2.2H3.4C2.07 2.2 1 3.27 1 4.6v4.17M1 18.43v4.17C1 23.93 2.07 25 3.4 25h4.17M17.23 25h4.17c1.33 0 2.4-1.07 2.4-2.4v-4.17M19.64 15.96s.02.06 0 .08a.06.06 0 0 1-.08 0 .06.06 0 0 1 0-.08.06.06 0 0 1 .08 0" class="cls-1"/></g><path d="M19.74 8.77C25.96 8.77 31 13.48 31 19.28c0 5.81-5.04 10.51-11.26 10.51S8.48 25.08 8.48 19.28c0-5.81 5.04-10.51 11.26-10.51Z" style="fill:#fff"/><path d="M22 11.8h0a9 9 0 0 1 9 9h0a9 9 0 0 1-9 9h0a9 9 0 0 1-9-9h0a9 9 0 0 1 9-9ZM22 21.3v-5" class="cls-2"/><path d="M22 24.8c-.14 0-.25.11-.25.25s.11.25.25.25.25-.11.25-.25-.11-.25-.25-.25" class="cls-2"/></svg>
